<svg xmlns="http://www.w3.org/2000/svg" viewBox="0 0 2000 1200" width="2000" height="1200" role="img"><defs><radialGradient id="g" cx="50%" cy="72%" r="62%"><stop offset="0" stop-color="#1C1C21"/><stop offset="1" stop-color="#0E0E10"/></radialGradient><radialGradient id="s" cx="50%" cy="50%" r="50%"><stop offset="0" stop-color="#000" stop-opacity=".55"/><stop offset="1" stop-color="#000" stop-opacity="0"/></radialGradient></defs><rect width="2000" height="1200" fill="url(#g)"/><ellipse cx="1000" cy="1092" rx="739" ry="81" fill="url(#s)"/><polygon points="1452,1002 1463,899 1374,886 1363,988" fill="#0e1012"/><polygon points="1419,1094 1452,1002 1363,988 1331,1081" fill="#08090b"/><polygon points="1463,899 1452,807 1363,793 1374,886" fill="#131518"/><polygon points="1373,1158 1419,1094 1331,1081 1284,1145" fill="#08090b"/><polygon points="1496,597 1547,429 1333,397 1366,578" fill="#43454a"/><polygon points="1452,807 1419,743 1331,730 1363,793" fill="#16181c"/><polygon points="1448,659 1496,597 1366,578 1326,641" fill="#242528"/><polygon points="1547,429 1560,249 1285,208 1333,397" fill="#4f5257"/><polygon points="1321,1182 1373,1158 1284,1145 1232,1168" fill="#08090b"/><polygon points="1419,743 1373,721 1284,707 1331,730" fill="#16181c"/><polygon points="1493,458 1528,378 1299,344 1264,424" fill="#4a4b4e"/><polygon points="1528,378 1537,262 1255,219 1299,344" fill="#a8acb3"/><polygon points="1377,675 1448,659 1326,641 1239,654" fill="#242528"/><polygon points="1463,899 1460,850 1452,807 1438,770 1419,743 1397,726 1373,721 1347,727 1321,744 1296,771 1274,808 1256,852 1242,901 1233,952 1231,1003 1233,1052 1242,1095 1256,1132 1274,1159 1296,1176 1321,1182 1347,1176 1373,1158 1397,1131 1419,1094 1438,1050 1452,1002 1460,950" fill="#0f1114"/><polygon points="1424,917 1422,885 1416,856 1407,832 1395,814 1380,803 1364,799 1347,803 1330,814 1314,832 1299,857 1287,886 1278,918 1272,952 1270,985 1272,1018 1278,1046 1287,1070 1299,1088 1314,1099 1330,1103 1347,1099 1364,1088 1380,1070 1395,1045 1407,1017 1416,984 1422,951" fill="#2a2e33"/><polygon points="1375,939 1374,927 1372,916 1369,908 1364,901 1359,897 1353,896 1347,897 1341,901 1335,908 1329,917 1325,927 1322,939 1320,951 1319,964 1320,975 1322,986 1325,994 1329,1001 1335,1005 1341,1006 1347,1005 1353,1001 1359,994 1364,985 1369,975 1372,963 1374,951" fill="#40434a"/><polygon points="1560,249 1540,96 1235,51 1285,208" fill="#56595f"/><polygon points="1274,1159 1321,1182 1232,1168 1186,1146" fill="#08090b"/><polygon points="1464,394 1493,458 1264,424 1205,356" fill="#4b4d50"/><polygon points="1373,721 1321,744 1232,730 1284,707" fill="#131519"/><polygon points="1537,262 1505,198 1199,152 1255,219" fill="#bfc3cb"/><polygon points="1296,661 1442,596 1308,576 1163,641" fill="#52555a"/><polygon points="1242,1095 1274,1159 1186,1146 1153,1082" fill="#090a0b"/><polygon points="1263,731 1302,714 1290,304 1251,321" fill="#43464d"/><polygon points="1304,730 1449,665 1442,596 1296,661" fill="#414348"/><polygon points="1263,731 1251,321 1165,309 1178,719" fill="#2c2e32"/><polygon points="1540,96 1507,22 1179,-27 1235,51" fill="#5d6066"/><polygon points="1313,691 1377,675 1239,654 1145,666" fill="#242528"/><polygon points="1453,280 1464,394 1205,356 1163,237" fill="#515256"/><polygon points="1321,744 1274,808 1186,795 1232,730" fill="#0f1013"/><polygon points="1528,378 1537,262 1505,198 1453,280 1464,394 1493,458" fill="#85888e"/><polygon points="1505,198 1453,280 1163,237 1199,152" fill="#727479"/><polygon points="1251,321 1290,304 1204,291 1165,309" fill="#545860"/><polygon points="1231,1003 1242,1095 1153,1082 1142,990" fill="#0a0a0c"/><polygon points="1388,750 1427,733 1415,323 1376,340" fill="#43464d"/><polygon points="1274,808 1242,901 1153,887 1186,795" fill="#0a0b0d"/><polygon points="1388,750 1376,340 1290,327 1303,737" fill="#2c2e32"/><polygon points="1242,901 1231,1003 1142,990 1153,887" fill="#0a0b0d"/><polygon points="1304,730 1296,661 1163,641 1156,708" fill="#2b2c2f"/><polygon points="1496,597 1547,429 1560,249 1540,96 1507,22 1448,39 1390,142 1365,341 1332,539 1290,698 1313,691 1377,675 1448,659" fill="#414348"/><polygon points="1376,340 1415,323 1329,310 1290,327" fill="#545860"/><polygon points="1507,22 1448,39 1097,-13 1179,-27" fill="#55585e"/><polygon points="1290,698 1313,691 1145,666 1062,664" fill="#242528"/><polygon points="1284,804 1303,695 1067,659 1033,766" fill="#121416"/><polygon points="1332,539 1290,698 1062,664 1073,500" fill="#2c2e31"/><polygon points="1365,341 1332,539 1073,500 1075,298" fill="#2c2d30"/><polygon points="1448,39 1390,142 1085,97 1097,-13" fill="#2b2d2f"/><polygon points="1390,142 1365,341 1075,298 1085,97" fill="#2c2d30"/><polygon points="1303,695 1276,759 971,714 1067,659" fill="#1d1e22"/><polygon points="1495,14 1531,-2 989,-83 953,-67" fill="#212327"/><polygon points="1219,889 1284,804 1033,766 869,837" fill="#0e0f11"/><polygon points="1495,62 1495,14 953,-67 953,-19" fill="#111214"/><polygon points="1276,759 1203,825 841,771 971,714" fill="#202126"/><polygon points="1495,62 1531,46 1531,-2 1495,14" fill="#1a1c1f"/><polygon points="1093,949 1219,889 869,837 731,895" fill="#0e0f11"/><polygon points="1203,825 1093,869 731,815 841,771" fill="#212327"/><polygon points="1128,784 1091,655 733,602 784,732" fill="#5a5d62"/><polygon points="996,880 1128,784 784,732 652,829" fill="#242528"/><polygon points="847,1273 858,1170 769,1157 758,1259" fill="#0e1012"/><polygon points="1093,869 968,865 663,820 731,815" fill="#23252a"/><polygon points="1303,695 1276,759 1203,825 1093,869 968,865 861,859 766,914 736,1010 873,1005 1093,949 1219,889 1284,804" fill="#1a1c1f"/><polygon points="814,1365 847,1273 758,1259 726,1352" fill="#08090b"/><polygon points="1091,655 1043,546 693,494 733,602" fill="#5b5e64"/><polygon points="858,1170 847,1078 758,1065 769,1157" fill="#131518"/><polygon points="873,1005 1093,949 731,895 599,964" fill="#0e0f11"/><polygon points="768,1430 814,1365 726,1352 679,1416" fill="#08090b"/><polygon points="847,1078 814,1014 726,1001 758,1065" fill="#16181c"/><polygon points="1043,546 996,507 652,455 693,494" fill="#5e6167"/><polygon points="1014,523 1018,483 683,433 678,473" fill="#181a1d"/><polygon points="716,1453 768,1430 679,1416 627,1439" fill="#08090b"/><polygon points="968,865 861,859 594,819 663,820" fill="#24262a"/><polygon points="814,1014 768,992 679,978 726,1001" fill="#16181c"/><polygon points="852,943 996,880 652,829 532,895" fill="#242528"/><polygon points="955,527 1014,523 678,473 605,474" fill="#0e0f11"/><polygon points="1018,483 947,477 596,425 683,433" fill="#24262b"/><polygon points="858,1170 855,1121 847,1078 833,1041 814,1014 792,997 768,992 742,998 716,1015 692,1043 669,1079 651,1123 637,1172 629,1223 626,1274 629,1323 637,1367 651,1403 669,1430 692,1447 716,1453 742,1447 768,1430 792,1402 814,1365 833,1321 847,1273 855,1221" fill="#0f1114"/><polygon points="819,1188 817,1156 811,1127 802,1103 790,1085 775,1074 759,1070 742,1074 725,1085 709,1104 694,1128 682,1157 673,1189 667,1223 665,1257 667,1289 673,1317 682,1341 694,1360 709,1371 725,1374 742,1370 759,1359 775,1341 790,1317 802,1288 811,1256 817,1222" fill="#2a2e33"/><polygon points="770,1210 769,1198 767,1188 764,1179 759,1172 754,1168 748,1167 742,1168 736,1172 730,1179 725,1188 720,1198 717,1210 715,1222 714,1235 715,1246 717,1257 720,1266 725,1272 730,1276 736,1278 742,1276 748,1272 754,1265 759,1257 764,1246 767,1234 769,1222" fill="#40434a"/><polygon points="669,1430 716,1453 627,1439 581,1417" fill="#08090b"/><polygon points="996,507 895,533 559,483 652,455" fill="#54575d"/><polygon points="768,992 716,1015 627,1002 679,978" fill="#131519"/><polygon points="695,922 828,862 701,843 567,903" fill="#212327"/><polygon points="736,1010 873,1005 599,964 507,976" fill="#0e0f11"/><polygon points="861,859 766,914 530,878 594,819" fill="#1f2025"/><polygon points="637,1367 669,1430 581,1417 548,1353" fill="#090a0b"/><polygon points="702,987 835,928 828,862 695,922" fill="#1a1c1f"/><polygon points="855,570 955,527 605,474 512,518" fill="#0e0f11"/><polygon points="716,1015 669,1079 581,1066 627,1002" fill="#0f1013"/><polygon points="1128,784 1091,655 1043,546 996,507 895,533 791,597 731,711 698,844 732,940 852,943 996,880" fill="#414348"/><polygon points="947,477 846,515 503,464 596,425" fill="#212328"/><polygon points="626,1274 637,1367 548,1353 537,1261" fill="#0a0a0c"/><polygon points="732,940 852,943 532,895 458,899" fill="#242528"/><polygon points="669,1079 637,1172 548,1158 581,1066" fill="#0a0b0d"/><polygon points="766,914 736,1010 507,976 530,878" fill="#121215"/><polygon points="702,987 695,922 567,903 560,966" fill="#111214"/><polygon points="637,1172 626,1274 537,1261 548,1158" fill="#0a0b0d"/><polygon points="895,533 791,597 470,549 559,483" fill="#4e5056"/><polygon points="1018,483 947,477 846,515 764,582 769,623 855,570 955,527 1014,523" fill="#1a1c1f"/><polygon points="769,623 855,570 512,518 448,575" fill="#0e0f11"/><polygon points="846,515 764,582 444,534 503,464" fill="#1d1e22"/><polygon points="698,844 732,940 458,899 439,806" fill="#27282b"/><polygon points="791,597 731,711 442,667 470,549" fill="#2e2f33"/><polygon points="764,582 769,623 448,575 444,534" fill="#101114"/><polygon points="731,711 698,844 439,806 442,667" fill="#2c2e31"/><polygon points="686,499 782,456 552,421 456,465" fill="#545860"/><polygon points="686,543 782,500 782,456 686,499" fill="#43464d"/><polygon points="686,543 686,499 456,465 456,509" fill="#2c2e32"/></svg>