<svg xmlns="http://www.w3.org/2000/svg" viewBox="0 0 2000 1200" width="2000" height="1200" role="img"><defs><radialGradient id="g" cx="50%" cy="72%" r="62%"><stop offset="0" stop-color="#1C1C21"/><stop offset="1" stop-color="#0E0E10"/></radialGradient><radialGradient id="s" cx="50%" cy="50%" r="50%"><stop offset="0" stop-color="#000" stop-opacity=".55"/><stop offset="1" stop-color="#000" stop-opacity="0"/></radialGradient></defs><rect width="2000" height="1200" fill="url(#g)"/><ellipse cx="1000" cy="1092" rx="739" ry="81" fill="url(#s)"/><polygon points="300,1098 361,1192 415,1168 354,1073" fill="#090a0b"/><polygon points="279,988 300,1098 354,1073 333,964" fill="#0a0a0c"/><polygon points="361,1192 449,1252 503,1228 415,1168" fill="#08090b"/><polygon points="300,885 279,988 333,964 354,861" fill="#0a0b0d"/><polygon points="449,1252 547,1267 601,1243 503,1228" fill="#08090b"/><polygon points="361,809 300,885 354,861 415,785" fill="#0a0b0d"/><polygon points="547,1267 635,1233 689,1209 601,1243" fill="#08090b"/><polygon points="449,775 361,809 415,785 503,751" fill="#0f1013"/><polygon points="215,301 267,395 330,366 261,280" fill="#510812"/><polygon points="254,252 215,301 261,280 313,225" fill="#630a16"/><polygon points="717,1054 712,999 695,944 669,894 635,850 593,815 547,790 498,776 449,775 403,787 361,809 326,843 300,885 284,935 279,988 284,1044 300,1098 326,1148 361,1192 403,1227 449,1252 498,1266 547,1267 593,1256 635,1233 669,1199 695,1157 712,1107" fill="#0f1114"/><polygon points="643,1043 639,1006 628,971 611,937 588,908 561,885 530,869 498,860 466,859 435,866 408,881 385,904 367,932 357,964 353,999 357,1036 367,1072 385,1105 408,1134 435,1157 466,1174 498,1183 530,1183 561,1176 588,1161 611,1139 628,1111 639,1078" fill="#2a2e33"/><polygon points="550,1029 549,1016 545,1003 539,991 531,980 521,972 510,966 498,962 486,962 475,965 465,970 457,978 450,989 447,1000 445,1013 447,1026 450,1039 457,1052 465,1062 475,1071 486,1077 498,1080 510,1080 521,1077 531,1072 539,1064 545,1054 549,1042" fill="#40434a"/><polygon points="635,1233 695,1157 749,1133 689,1209" fill="#08090b"/><polygon points="547,790 449,775 503,751 601,766" fill="#131519"/><polygon points="267,395 407,477 496,437 330,366" fill="#4e0811"/><polygon points="388,652 597,683 662,654 453,622" fill="#212327"/><polygon points="379,287 254,252 313,225 462,250" fill="#b61328"/><polygon points="695,1157 717,1054 771,1030 749,1133" fill="#0e1012"/><polygon points="635,850 547,790 601,766 689,826" fill="#16181c"/><polygon points="565,774 1040,845 1075,829 600,758" fill="#545860"/><polygon points="449,531 507,622 609,577 545,488" fill="#0b0c0d"/><polygon points="717,1054 695,944 749,920 771,1030" fill="#131518"/><polygon points="695,944 635,850 689,826 749,920" fill="#16181c"/><polygon points="565,848 1040,919 1040,845 565,774" fill="#43464d"/><polygon points="407,477 540,499 636,456 496,437" fill="#4e0811"/><polygon points="480,395 480,440 514,425 514,380" fill="#111214"/><polygon points="384,710 593,742 597,683 388,652" fill="#1a1c1f"/><polygon points="593,742 666,709 662,654 597,683" fill="#1d1e22"/><polygon points="547,483 449,531 545,488 660,432" fill="#121316"/><polygon points="483,385 454,416 540,377 572,345" fill="#131417"/><polygon points="507,622 651,649 770,596 609,577" fill="#0b0b0d"/><polygon points="540,378 379,287 462,250 636,335" fill="#c5142b"/><polygon points="540,378 379,287 254,252 215,301 267,395 407,477 540,499" fill="#8e0e1f"/><polygon points="540,499 540,378 636,335 636,456" fill="#9c1022"/><polygon points="480,440 753,500 790,484 514,425" fill="#0e0f11"/><polygon points="454,416 693,468 789,425 540,377" fill="#0e0f11"/><polygon points="671,712 636,593 755,539 810,650" fill="#23252a"/><polygon points="753,464 480,395 514,380 790,448" fill="#222428"/><polygon points="785,851 671,712 810,650 910,795" fill="#25272d"/><polygon points="693,428 483,385 572,345 789,385" fill="#212328"/><polygon points="1040,919 1075,903 1075,829 1040,845" fill="#494d54"/><polygon points="725,503 547,483 660,432 848,449" fill="#18191d"/><polygon points="651,649 754,603 880,547 770,596" fill="#0b0b0d"/><polygon points="636,593 778,588 887,539 755,539" fill="#0e0f11"/><polygon points="954,898 785,851 910,795 1076,843" fill="#222429"/><polygon points="754,603 725,503 848,449 880,547" fill="#1a1a1e"/><polygon points="725,503 547,483 449,531 507,622 651,649 754,603" fill="#141417"/><polygon points="693,468 954,511 1046,469 789,425" fill="#0e0f11"/><polygon points="778,588 996,641 1095,596 887,539" fill="#0e0f11"/><polygon points="954,470 693,428 789,385 1046,429" fill="#212327"/><polygon points="1095,858 954,898 1076,843 1210,807" fill="#1b1d20"/><polygon points="753,500 1134,557 1171,541 790,484" fill="#0e0f11"/><polygon points="1251,1240 1311,1334 1365,1310 1305,1216" fill="#090a0b"/><polygon points="1229,1130 1251,1240 1305,1216 1283,1106" fill="#0a0a0c"/><polygon points="1134,521 753,464 790,448 1171,504" fill="#212327"/><polygon points="1311,1334 1399,1394 1453,1370 1365,1310" fill="#08090b"/><polygon points="1079,509 954,470 693,428 483,385 454,416 693,468 954,511 1064,539" fill="#1a1c1f"/><polygon points="1251,1027 1229,1130 1283,1106 1305,1003" fill="#0a0b0d"/><polygon points="1174,810 1121,829 1154,814 1207,795" fill="#1a1c1f"/><polygon points="1441,539 1134,521 753,464 480,395 480,440 753,500 1134,557 1425,572" fill="#1a1c1f"/><polygon points="1147,754 1095,858 954,898 785,851 671,712 636,593 778,588 996,641 1121,675" fill="#1a1c1f"/><polygon points="996,641 1121,675 1214,634 1095,596" fill="#0e0f11"/><polygon points="1147,754 1095,858 1210,807 1249,708" fill="#121315"/><polygon points="954,511 1064,539 1150,500 1046,469" fill="#0e0f11"/><polygon points="1121,829 1212,671 1245,656 1154,814" fill="#111215"/><polygon points="1079,509 954,470 1046,429 1165,471" fill="#232529"/><polygon points="1399,1394 1497,1409 1551,1385 1453,1370" fill="#08090b"/><polygon points="1311,951 1251,1027 1305,1003 1365,927" fill="#0a0b0d"/><polygon points="1121,675 1147,754 1249,708 1214,634" fill="#101013"/><polygon points="1064,539 1079,509 1165,471 1150,500" fill="#121316"/><polygon points="1048,554 1147,615 1249,569 1134,516" fill="#4e0811"/><polygon points="1079,478 1048,554 1134,516 1195,426" fill="#600a15"/><polygon points="1273,680 1174,810 1207,795 1306,665" fill="#111215"/><polygon points="1497,1409 1585,1375 1639,1351 1551,1385" fill="#08090b"/><polygon points="1399,917 1311,951 1365,927 1453,893" fill="#0f1013"/><polygon points="1180,443 1079,478 1195,426 1339,371" fill="#8e0e1f"/><polygon points="1147,615 1312,641 1451,579 1249,569" fill="#4e0811"/><polygon points="1532,905 1584,881 1551,424 1499,447" fill="#494d54"/><polygon points="1667,1196 1662,1141 1646,1087 1620,1036 1585,992 1543,957 1497,932 1448,919 1399,917 1353,929 1311,951 1277,985 1251,1027 1234,1077 1229,1130 1234,1186 1251,1240 1277,1290 1311,1334 1353,1369 1399,1394 1448,1408 1497,1409 1543,1398 1585,1375 1620,1341 1646,1299 1662,1249" fill="#0f1114"/><polygon points="1593,1185 1589,1148 1579,1113 1561,1079 1538,1050 1511,1027 1480,1011 1448,1002 1416,1001 1385,1008 1358,1023 1335,1046 1318,1074 1307,1106 1303,1141 1307,1178 1318,1214 1335,1247 1358,1276 1385,1299 1416,1316 1448,1325 1480,1325 1511,1318 1538,1303 1561,1281 1579,1253 1589,1220" fill="#2a2e33"/><polygon points="1501,1171 1499,1158 1496,1145 1489,1133 1481,1122 1471,1114 1460,1108 1448,1104 1436,1104 1425,1107 1415,1112 1407,1120 1401,1131 1397,1142 1396,1155 1397,1169 1401,1181 1407,1194 1415,1204 1425,1213 1436,1219 1448,1222 1460,1222 1471,1219 1481,1214 1489,1206 1496,1196 1499,1184" fill="#40434a"/><polygon points="1442,560 1273,680 1174,810 1121,829 1212,671 1381,560" fill="#1a1c1f"/><polygon points="1212,671 1381,560 1411,547 1245,656" fill="#0e0f11"/><polygon points="1134,557 1425,572 1459,558 1171,541" fill="#0e0f11"/><polygon points="1585,1375 1646,1299 1700,1275 1639,1351" fill="#08090b"/><polygon points="1497,932 1399,917 1453,893 1551,908" fill="#131519"/><polygon points="1441,539 1134,521 1171,504 1474,524" fill="#202126"/><polygon points="1472,896 1532,905 1499,447 1439,438" fill="#43464d"/><polygon points="1439,438 1499,447 1551,424 1491,415" fill="#545860"/><polygon points="1442,560 1273,680 1306,665 1472,547" fill="#16171a"/><polygon points="1327,801 1555,835 1623,805 1395,770" fill="#b21227"/><polygon points="1646,1299 1667,1196 1721,1172 1700,1275" fill="#0e1012"/><polygon points="1585,992 1497,932 1551,908 1639,968" fill="#16181c"/><polygon points="1344,451 1180,443 1339,371 1510,377" fill="#ab1125"/><polygon points="1667,1196 1646,1087 1700,1062 1721,1172" fill="#131518"/><polygon points="1381,560 1442,560 1472,547 1411,547" fill="#0e0f11"/><polygon points="1646,1087 1585,992 1639,968 1700,1062" fill="#16181c"/><polygon points="1312,641 1504,641 1593,601 1451,579" fill="#4e0811"/><polygon points="1323,863 1551,897 1555,835 1327,801" fill="#8e0e1f"/><polygon points="1425,572 1441,539 1474,524 1459,558" fill="#141517"/><polygon points="1551,897 1627,863 1623,805 1555,835" fill="#9c1022"/><polygon points="1223,409 1278,418 1557,293 1501,285" fill="#212327"/><polygon points="1278,460 1557,335 1557,293 1278,418" fill="#1d1e22"/><polygon points="1592,576 1513,489 1344,451 1180,443 1079,478 1048,554 1147,615 1312,641 1504,641" fill="#8e0e1f"/><polygon points="1513,489 1344,451 1510,377 1615,443" fill="#bf142a"/><polygon points="1504,641 1592,576 1658,546 1593,601" fill="#4e0811"/><polygon points="1426,953 1478,929 1445,472 1392,495" fill="#494d54"/><polygon points="1528,478 1565,606 1624,579 1600,445" fill="#0c0d0e"/><polygon points="1565,606 1646,687 1695,665 1624,579" fill="#0b0b0d"/><polygon points="1592,576 1513,489 1615,443 1658,546" fill="#c9152c"/><polygon points="1366,944 1426,953 1392,495 1332,486" fill="#43464d"/><polygon points="1332,486 1392,495 1445,472 1385,463" fill="#545860"/><polygon points="1599,455 1528,478 1600,445 1682,418" fill="#141518"/><polygon points="1646,687 1722,644 1772,622 1695,665" fill="#0b0b0d"/><polygon points="1680,519 1599,455 1682,418 1753,486" fill="#1c1d21"/><polygon points="1722,644 1680,519 1753,486 1772,622" fill="#191a1d"/><polygon points="1722,644 1680,519 1599,455 1528,478 1565,606 1646,687" fill="#141417"/><polygon points="1223,452 1278,460 1278,418 1223,409" fill="#1a1c1f"/></svg>