<svg xmlns="http://www.w3.org/2000/svg" viewBox="0 0 2000 1200" width="2000" height="1200" role="img"><defs><radialGradient id="g" cx="50%" cy="72%" r="62%"><stop offset="0" stop-color="#1C1C21"/><stop offset="1" stop-color="#0E0E10"/></radialGradient><radialGradient id="s" cx="50%" cy="50%" r="50%"><stop offset="0" stop-color="#000" stop-opacity=".55"/><stop offset="1" stop-color="#000" stop-opacity="0"/></radialGradient></defs><rect width="2000" height="1200" fill="url(#g)"/><ellipse cx="1000" cy="1092" rx="739" ry="81" fill="url(#s)"/><polygon points="1188,991 1192,878 1086,873 1082,986" fill="#0e1012"/><polygon points="1176,1094 1188,991 1082,986 1069,1089" fill="#08090b"/><polygon points="1192,878 1188,778 1082,773 1086,873" fill="#131518"/><polygon points="1158,1167 1176,1094 1069,1089 1052,1162" fill="#08090b"/><polygon points="1188,778 1176,711 1069,706 1082,773" fill="#16181c"/><polygon points="1199,304 1215,188 1072,181 1101,299" fill="#191a1d"/><polygon points="1183,380 1199,304 1101,299 1086,376" fill="#0b0b0d"/><polygon points="1139,1195 1158,1167 1052,1162 1032,1191" fill="#08090b"/><polygon points="1176,711 1158,690 1052,685 1069,706" fill="#16181c"/><polygon points="1215,188 1210,157 1047,149 1072,181" fill="#1c1d21"/><polygon points="1178,331 1183,380 1086,376 1061,326" fill="#0b0b0d"/><polygon points="1199,304 1215,188 1210,157 1185,215 1178,331 1183,380" fill="#141417"/><polygon points="1192,878 1191,825 1188,778 1183,740 1176,711 1168,694 1158,690 1148,698 1139,718 1129,750 1121,792 1114,841 1109,895 1106,951 1105,1007 1106,1060 1109,1107 1114,1146 1121,1174 1129,1191 1139,1195 1148,1187 1158,1167 1168,1135 1176,1094 1183,1045 1188,991 1191,934" fill="#0f1114"/><polygon points="1178,900 1177,865 1175,834 1171,809 1167,790 1161,779 1155,776 1148,781 1142,795 1136,816 1130,843 1126,875 1122,911 1120,948 1119,985 1120,1020 1122,1051 1126,1077 1130,1095 1136,1107 1142,1109 1148,1104 1155,1090 1161,1070 1167,1042 1171,1010 1175,974 1177,937" fill="#2a2e33"/><polygon points="1159,927 1159,914 1158,903 1157,894 1155,887 1153,883 1151,882 1148,884 1146,889 1144,896 1142,906 1140,918 1139,931 1138,945 1138,958 1138,971 1139,982 1140,991 1142,998 1144,1002 1146,1003 1148,1001 1151,996 1153,989 1155,979 1157,967 1158,954 1159,941" fill="#40434a"/><polygon points="1198,382 1190,286 1060,280 1022,374" fill="#4e0811"/><polygon points="1121,1174 1139,1195 1032,1191 1015,1169" fill="#08090b"/><polygon points="1190,286 1214,220 1012,211 1060,280" fill="#c9152c"/><polygon points="1210,157 1185,215 1041,208 1047,149" fill="#141518"/><polygon points="1185,215 1178,331 1061,326 1041,208" fill="#0c0d0e"/><polygon points="1158,690 1139,718 1032,714 1052,685" fill="#131519"/><polygon points="1140,629 1185,561 1051,555 1005,622" fill="#b21227"/><polygon points="1147,689 1193,622 1185,561 1140,629" fill="#8e0e1f"/><polygon points="1036,708 1048,690 1041,248 1029,265" fill="#43464d"/><polygon points="1109,1107 1121,1174 1015,1169 1002,1102" fill="#090a0b"/><polygon points="1213,447 1198,382 1022,374 940,435" fill="#4e0811"/><polygon points="1036,708 1029,265 926,261 933,703" fill="#2c2e32"/><polygon points="1139,718 1121,792 1015,787 1032,714" fill="#0f1013"/><polygon points="1214,220 1249,232 923,217 1012,211" fill="#bf142a"/><polygon points="1246,718 1258,700 1251,257 1239,275" fill="#43464d"/><polygon points="1121,370 1124,330 1059,327 1056,367" fill="#141517"/><polygon points="1246,718 1239,275 1136,270 1142,713" fill="#2c2e32"/><polygon points="1029,265 1041,248 938,243 926,261" fill="#545860"/><polygon points="1147,689 1140,629 1005,622 998,682" fill="#5d0a14"/><polygon points="1109,379 1121,352 1062,349 1050,376" fill="#0e0f11"/><polygon points="1105,1007 1109,1107 1002,1102 998,1002" fill="#0a0a0c"/><polygon points="1121,792 1109,895 1002,890 1015,787" fill="#0a0b0d"/><polygon points="1239,275 1251,257 1148,253 1136,270" fill="#545860"/><polygon points="1109,895 1105,1007 998,1002 1002,890" fill="#0a0b0d"/><polygon points="1121,352 1091,546 1025,543 1062,349" fill="#16171a"/><polygon points="1347,199 1358,183 809,158 798,174" fill="#212327"/><polygon points="1078,564 1109,379 1050,376 1013,561" fill="#0e0f11"/><polygon points="1190,286 1214,220 1249,232 1208,299 1142,396 1103,498 1141,508 1213,447 1198,382" fill="#8e0e1f"/><polygon points="1347,241 1347,199 798,174 798,216" fill="#111214"/><polygon points="1249,232 1208,299 896,285 923,217" fill="#ab1125"/><polygon points="1121,352 1091,546 1071,719 1060,762 1078,564 1109,379" fill="#1a1c1f"/><polygon points="1141,508 1213,447 940,435 939,499" fill="#4e0811"/><polygon points="1347,241 1358,225 1358,183 1347,199" fill="#1a1c1f"/><polygon points="1066,483 1121,370 1056,367 995,479" fill="#0e0f11"/><polygon points="1124,330 1066,447 995,443 1059,327" fill="#202126"/><polygon points="1091,546 1071,719 1006,716 1025,543" fill="#111215"/><polygon points="1141,648 1145,770 917,760 939,639" fill="#121315"/><polygon points="1060,762 1078,564 1013,561 995,759" fill="#111215"/><polygon points="1071,719 1060,762 995,759 1006,716" fill="#1a1c1f"/><polygon points="1125,584 1141,648 939,639 942,576" fill="#101013"/><polygon points="1208,299 1142,396 913,386 896,285" fill="#8e0e1f"/><polygon points="1145,770 1124,869 882,858 917,760" fill="#1b1d20"/><polygon points="1103,498 1141,508 939,499 934,491" fill="#4e0811"/><polygon points="1107,602 1125,584 942,576 911,594" fill="#0e0f11"/><polygon points="1106,476 1109,440 940,432 937,468" fill="#121316"/><polygon points="1142,396 1103,498 934,491 913,386" fill="#600a15"/><polygon points="1091,494 1106,476 937,468 909,486" fill="#0e0f11"/><polygon points="1109,440 1091,453 909,445 940,432" fill="#232529"/><polygon points="1124,869 1093,896 846,885 882,858" fill="#222429"/><polygon points="1141,648 1145,770 1124,869 1093,896 1085,802 1056,707 1074,643 1107,602 1125,584" fill="#1a1c1f"/><polygon points="990,595 1066,483 995,479 918,592" fill="#0e0f11"/><polygon points="1074,643 1107,602 911,594 859,633" fill="#0e0f11"/><polygon points="1066,447 990,559 918,556 995,443" fill="#212327"/><polygon points="1124,330 1066,447 990,559 932,612 932,657 990,595 1066,483 1121,370" fill="#1a1c1f"/><polygon points="998,1270 1002,1158 895,1153 891,1265" fill="#0e1012"/><polygon points="847,1065 942,925 942,852 847,992" fill="#43464d"/><polygon points="847,992 942,852 872,849 777,989" fill="#545860"/><polygon points="985,1373 998,1270 891,1265 879,1368" fill="#08090b"/><polygon points="1043,566 1091,494 909,486 854,557" fill="#0e0f11"/><polygon points="1093,896 1085,802 811,790 846,885" fill="#25272d"/><polygon points="1002,1158 998,1058 891,1053 895,1153" fill="#131518"/><polygon points="1091,453 1043,525 854,517 909,445" fill="#212327"/><polygon points="1087,662 1078,576 837,565 839,651" fill="#1a1a1e"/><polygon points="1109,440 1091,453 1043,525 993,579 984,624 1043,566 1091,494 1106,476" fill="#1a1c1f"/><polygon points="968,1446 985,1373 879,1368 861,1442" fill="#08090b"/><polygon points="998,1058 985,991 879,986 891,1053" fill="#16181c"/><polygon points="1059,756 1087,662 839,651 825,745" fill="#0b0b0d"/><polygon points="1056,707 1074,643 859,633 822,696" fill="#0e0f11"/><polygon points="1085,802 1056,707 822,696 811,790" fill="#23252a"/><polygon points="948,1475 968,1446 861,1442 842,1470" fill="#08090b"/><polygon points="985,991 968,969 861,965 879,986" fill="#16181c"/><polygon points="1078,576 1031,639 810,628 837,565" fill="#18191d"/><polygon points="1012,800 1059,756 825,745 810,791" fill="#0b0b0d"/><polygon points="1078,576 1031,639 994,737 1012,800 1059,756 1087,662" fill="#141417"/><polygon points="1002,1158 1001,1105 998,1058 992,1019 985,991 977,974 968,969 958,978 948,998 939,1030 931,1071 924,1120 918,1174 915,1231 914,1287 915,1340 918,1387 924,1425 931,1454 939,1471 948,1475 958,1467 968,1446 977,1415 985,1373 992,1324 998,1270 1001,1214" fill="#0f1114"/><polygon points="987,1180 986,1145 984,1114 981,1088 976,1069 971,1058 964,1055 958,1061 951,1074 945,1095 940,1123 935,1155 932,1191 930,1228 929,1265 930,1300 932,1331 935,1356 940,1375 945,1386 951,1389 958,1384 964,1370 971,1349 976,1322 981,1290 984,1254 986,1217" fill="#2a2e33"/><polygon points="968,1207 968,1194 967,1183 966,1174 965,1167 963,1163 960,1162 958,1164 956,1168 953,1176 951,1186 950,1198 948,1211 948,1224 947,1238 948,1250 948,1262 950,1271 951,1278 953,1282 956,1283 958,1281 960,1276 963,1268 965,1259 966,1247 967,1234 968,1220" fill="#40434a"/><polygon points="847,1065 847,992 777,989 777,1062" fill="#2c2e32"/><polygon points="932,657 990,595 918,592 867,654" fill="#0e0f11"/><polygon points="990,559 932,612 867,609 918,556" fill="#222428"/><polygon points="931,1454 948,1475 842,1470 824,1449" fill="#08090b"/><polygon points="1043,525 993,579 817,571 854,517" fill="#212328"/><polygon points="984,624 1043,566 854,557 814,616" fill="#0e0f11"/><polygon points="968,969 948,998 842,993 861,965" fill="#131519"/><polygon points="1012,665 1012,543 823,535 823,656" fill="#9c1022"/><polygon points="948,897 990,836 861,830 819,891" fill="#212327"/><polygon points="955,955 997,893 990,836 948,897" fill="#1a1c1f"/><polygon points="1031,639 994,737 805,728 810,628" fill="#121316"/><polygon points="994,737 1012,800 810,791 805,728" fill="#0b0c0d"/><polygon points="918,1387 931,1454 824,1449 812,1382" fill="#090a0b"/><polygon points="978,705 1012,665 823,656 802,697" fill="#4e0811"/><polygon points="948,998 931,1071 824,1066 842,993" fill="#0f1013"/><polygon points="993,579 984,624 814,616 817,571" fill="#131417"/><polygon points="932,612 932,657 867,654 867,609" fill="#111214"/><polygon points="955,955 948,897 819,891 812,948" fill="#111214"/><polygon points="1012,543 965,529 802,521 823,535" fill="#c5142b"/><polygon points="914,1287 918,1387 812,1382 808,1282" fill="#0a0a0c"/><polygon points="931,1071 918,1174 812,1169 824,1066" fill="#0a0b0d"/><polygon points="918,1174 914,1287 808,1282 812,1169" fill="#0a0b0d"/><polygon points="921,695 978,705 802,697 797,689" fill="#4e0811"/><polygon points="1012,543 965,529 915,559 893,631 921,695 978,705 1012,665" fill="#8e0e1f"/><polygon points="965,529 915,559 798,554 802,521" fill="#b61328"/><polygon points="893,631 921,695 797,689 802,626" fill="#510812"/><polygon points="915,559 893,631 802,626 798,554" fill="#630a16"/></svg>