<svg xmlns="http://www.w3.org/2000/svg" viewBox="0 0 2000 1200" width="2000" height="1200" role="img"><defs><radialGradient id="g" cx="50%" cy="72%" r="62%"><stop offset="0" stop-color="#1C1C21"/><stop offset="1" stop-color="#0E0E10"/></radialGradient><radialGradient id="s" cx="50%" cy="50%" r="50%"><stop offset="0" stop-color="#000" stop-opacity=".55"/><stop offset="1" stop-color="#000" stop-opacity="0"/></radialGradient></defs><rect width="2000" height="1200" fill="url(#g)"/><ellipse cx="1000" cy="1092" rx="739" ry="81" fill="url(#s)"/><polygon points="1580,936 1560,1046 1630,1068 1649,957" fill="#0a0a0c"/><polygon points="1560,1046 1507,1143 1576,1164 1630,1068" fill="#090a0b"/><polygon points="1560,834 1580,936 1649,957 1630,855" fill="#0a0b0d"/><polygon points="1507,1143 1429,1207 1498,1229 1576,1164" fill="#08090b"/><polygon points="1507,760 1560,834 1630,855 1576,782" fill="#0a0b0d"/><polygon points="1429,1207 1342,1226 1412,1247 1498,1229" fill="#08090b"/><polygon points="1644,249 1580,338 1661,363 1704,267" fill="#0b0c0d"/><polygon points="1429,730 1507,760 1576,782 1498,752" fill="#0f1013"/><polygon points="1595,196 1644,249 1704,267 1672,220" fill="#0e0e10"/><polygon points="1342,1226 1265,1196 1334,1217 1412,1247" fill="#08090b"/><polygon points="1261,1042 1266,986 1280,931 1303,880 1334,834 1371,797 1412,770 1455,755 1498,752 1539,761 1576,782 1607,814 1630,855 1644,904 1649,957 1644,1013 1630,1068 1607,1119 1576,1164 1539,1202 1498,1229 1455,1244 1412,1247 1371,1238 1334,1217 1303,1185 1280,1144 1266,1095" fill="#090a0c"/><polygon points="1327,1027 1330,991 1340,954 1355,921 1375,891 1399,866 1427,848 1455,838 1484,836 1511,842 1535,856 1555,877 1570,904 1580,936 1583,972 1580,1008 1570,1044 1555,1078 1535,1108 1511,1133 1484,1151 1455,1161 1427,1163 1399,1157 1375,1143 1355,1122 1340,1095 1330,1062" fill="#191b1e"/><polygon points="1408,1010 1410,996 1413,983 1419,971 1426,960 1435,951 1445,944 1455,941 1465,940 1475,942 1484,947 1491,955 1497,965 1500,977 1502,989 1500,1003 1497,1016 1491,1028 1484,1039 1475,1048 1465,1054 1455,1058 1445,1059 1435,1057 1426,1052 1419,1044 1413,1034 1410,1022" fill="#26282c"/><polygon points="1580,338 1428,416 1543,452 1661,363" fill="#0b0b0d"/><polygon points="1342,749 1429,730 1498,752 1412,770" fill="#131519"/><polygon points="1459,227 1595,196 1672,220 1566,260" fill="#191a1e"/><polygon points="1265,1196 1211,1122 1280,1144 1334,1217" fill="#08090b"/><polygon points="1471,599 1286,640 1370,665 1555,625" fill="#212327"/><polygon points="1383,469 1325,560 1457,601 1507,507" fill="#3a3b3d"/><polygon points="1265,813 1342,749 1412,770 1334,834" fill="#16181c"/><polygon points="1211,1122 1192,1020 1261,1042 1280,1144" fill="#0e1012"/><polygon points="1559,684 1555,625 1370,665 1375,724" fill="#0f1012"/><polygon points="1424,360 1424,405 1466,418 1466,373" fill="#111214"/><polygon points="1428,416 1302,441 1426,479 1543,452" fill="#0b0b0d"/><polygon points="1426,358 1566,260 1672,220 1704,267 1661,363 1543,452 1426,479" fill="#0c0c0e"/><polygon points="1361,327 1390,358 1500,392 1475,363" fill="#131417"/><polygon points="1211,910 1265,813 1334,834 1280,931" fill="#16181c"/><polygon points="1278,418 1383,469 1507,507 1423,463" fill="#606266"/><polygon points="1281,695 1375,724 1370,665 1286,640" fill="#1d1e22"/><polygon points="1192,1020 1211,910 1280,931 1261,1042" fill="#131518"/><polygon points="1302,320 1459,227 1566,260 1426,358" fill="#1b1c20"/><polygon points="1325,560 1180,586 1333,634 1457,601" fill="#383a3c"/><polygon points="1302,441 1302,320 1426,358 1426,479" fill="#16161a"/><polygon points="1390,358 1168,417 1291,455 1500,392" fill="#0e0f11"/><polygon points="1424,405 1179,475 1226,489 1466,418" fill="#0e0f11"/><polygon points="1179,439 1424,360 1466,373 1226,453" fill="#222428"/><polygon points="1140,642 1193,529 1346,577 1319,697" fill="#23252a"/><polygon points="1168,376 1361,327 1475,363 1291,414" fill="#212328"/><polygon points="1054,792 1140,642 1319,697 1216,841" fill="#25272d"/><polygon points="1110,443 1278,418 1423,463 1267,491" fill="#7d8085"/><polygon points="1180,586 1081,542 1243,592 1333,634" fill="#383a3c"/><polygon points="1193,529 1078,535 1218,578 1346,577" fill="#0e0f11"/><polygon points="1451,780 1031,871 1076,885 1497,794" fill="#545860"/><polygon points="1267,491 1423,463 1507,507 1457,601 1333,634 1243,592" fill="#3c3e40"/><polygon points="1497,867 1497,794 1076,885 1076,959" fill="#27292d"/><polygon points="1081,542 1110,443 1267,491 1243,592" fill="#84888d"/><polygon points="908,847 1054,792 1216,841 1065,895" fill="#222429"/><polygon points="1168,417 940,471 1060,508 1291,455" fill="#0e0f11"/><polygon points="940,431 1168,376 1291,414 1060,468" fill="#212327"/><polygon points="1078,535 896,601 1023,640 1218,578" fill="#0e0f11"/><polygon points="1179,475 842,548 889,562 1226,489" fill="#0e0f11"/><polygon points="947,512 1060,468 1291,414 1475,363 1500,392 1291,455 1060,508 961,541" fill="#0f1012"/><polygon points="791,816 908,847 1065,895 940,862" fill="#1b1d20"/><polygon points="1031,945 1076,959 1076,885 1031,871" fill="#494d54"/><polygon points="842,512 1179,439 1226,453 889,526" fill="#212327"/><polygon points="617,557 889,526 1226,453 1466,373 1466,418 1226,489 889,562 630,590" fill="#0f1012"/><polygon points="891,760 940,862 1065,895 1216,841 1319,697 1346,577 1218,578 1023,640 911,680" fill="#0f1012"/><polygon points="739,1118 720,1229 789,1250 808,1140" fill="#0a0a0c"/><polygon points="720,1229 666,1326 735,1347 789,1250" fill="#090a0b"/><polygon points="940,471 850,507 961,541 1060,508" fill="#0e0f11"/><polygon points="810,804 857,820 900,834 853,817" fill="#1a1c1f"/><polygon points="896,601 792,643 911,680 1023,640" fill="#0e0f11"/><polygon points="720,1016 739,1118 808,1140 789,1038" fill="#0a0b0d"/><polygon points="837,478 940,431 1060,468 947,512" fill="#232529"/><polygon points="759,719 791,816 940,862 891,760" fill="#121315"/><polygon points="666,1326 588,1390 658,1411 735,1347" fill="#08090b"/><polygon points="857,820 776,667 819,680 900,834" fill="#111215"/><polygon points="850,507 837,478 947,512 961,541" fill="#121316"/><polygon points="792,643 759,719 891,760 911,680" fill="#101013"/><polygon points="804,435 864,522 974,556 953,481" fill="#0d0e10"/><polygon points="864,522 759,580 891,620 974,556" fill="#0b0b0d"/><polygon points="666,943 720,1016 789,1038 735,964" fill="#0a0b0d"/><polygon points="723,679 810,804 853,817 765,692" fill="#111215"/><polygon points="588,1390 502,1408 571,1430 658,1411" fill="#08090b"/><polygon points="669,387 804,435 953,481 873,449" fill="#141417"/><polygon points="588,913 666,943 735,964 658,934" fill="#0f1013"/><polygon points="759,580 574,599 752,654 891,620" fill="#0b0b0d"/><polygon points="502,1408 424,1378 493,1400 571,1430" fill="#08090b"/><polygon points="615,579 765,692 853,817 900,834 819,680 669,576" fill="#0f1012"/><polygon points="776,667 630,565 669,576 819,680" fill="#0e0f11"/><polygon points="842,548 588,577 630,590 889,562" fill="#0e0f11"/><polygon points="420,1224 425,1169 440,1114 463,1062 493,1017 530,980 571,953 614,937 658,934 699,943 735,964 766,997 789,1038 804,1086 808,1140 804,1195 789,1250 766,1302 735,1347 699,1384 658,1411 614,1427 571,1430 530,1421 493,1400 463,1367 440,1326 425,1277" fill="#090a0c"/><polygon points="486,1210 490,1173 499,1137 514,1103 535,1073 559,1049 586,1031 614,1021 643,1018 670,1024 694,1038 715,1060 730,1087 739,1119 742,1154 739,1191 730,1227 715,1261 694,1291 670,1315 643,1333 614,1343 586,1346 559,1340 535,1326 514,1304 499,1277 490,1245" fill="#191b1e"/><polygon points="574,544 842,512 889,526 617,557" fill="#202126"/><polygon points="568,1192 569,1179 572,1166 578,1153 585,1142 594,1133 604,1127 614,1123 625,1123 635,1125 643,1130 651,1137 656,1147 660,1159 661,1172 660,1185 656,1198 651,1211 643,1222 635,1230 625,1237 614,1241 604,1241 594,1239 585,1234 578,1227 572,1217 569,1205" fill="#26282c"/><polygon points="451,907 518,928 548,469 481,448" fill="#494d54"/><polygon points="502,931 588,913 658,934 571,953" fill="#131519"/><polygon points="576,567 723,679 765,692 615,579" fill="#16171a"/><polygon points="571,916 601,457 548,469 518,928" fill="#27292d"/><polygon points="424,1378 370,1305 440,1326 493,1400" fill="#08090b"/><polygon points="534,437 481,448 548,469 601,457" fill="#545860"/><polygon points="637,788 435,831 523,859 725,815" fill="#19191d"/><polygon points="516,399 669,387 873,449 729,465" fill="#18181c"/><polygon points="630,565 576,567 615,579 669,576" fill="#0e0f11"/><polygon points="424,996 502,931 571,953 493,1017" fill="#16181c"/><polygon points="370,1305 351,1203 420,1224 440,1326" fill="#0e1012"/><polygon points="574,599 457,627 572,663 752,654" fill="#0b0b0d"/><polygon points="729,877 725,815 523,859 528,920" fill="#0c0c0e"/><polygon points="588,577 574,544 617,557 630,590" fill="#141517"/><polygon points="501,307 452,318 810,428 859,418" fill="#212327"/><polygon points="370,1092 424,996 493,1017 440,1114" fill="#16181c"/><polygon points="351,1203 370,1092 440,1114 420,1224" fill="#131518"/><polygon points="452,360 810,471 810,428 452,318" fill="#1d1e22"/><polygon points="430,890 528,920 523,859 435,831" fill="#16161a"/><polygon points="490,601 567,510 729,465 873,449 953,481 974,556 891,620 752,654 572,663" fill="#0c0c0e"/><polygon points="435,470 516,399 729,465 567,510" fill="#1a1b1f"/><polygon points="588,949 655,970 685,511 618,490" fill="#494d54"/><polygon points="708,958 738,500 685,511 655,970" fill="#27292d"/><polygon points="457,627 405,574 490,601 572,663" fill="#0b0b0d"/><polygon points="671,479 618,490 685,511 738,500" fill="#545860"/><polygon points="454,471 436,606 512,629 548,500" fill="#3f4143"/><polygon points="436,606 375,694 439,714 512,629" fill="#393a3c"/><polygon points="405,574 435,470 567,510 490,601" fill="#1c1d21"/><polygon points="381,448 454,471 548,500 487,481" fill="#676a6e"/><polygon points="375,694 307,655 371,675 439,714" fill="#383a3c"/><polygon points="320,518 381,448 487,481 413,547" fill="#92969b"/><polygon points="859,460 859,418 810,428 810,471" fill="#0f1012"/><polygon points="307,655 320,518 413,547 371,675" fill="#808488"/><polygon points="371,675 413,547 487,481 548,500 512,629 439,714" fill="#3c3e40"/></svg>